<mxfile host="app.diagrams.net" agent="Mozilla/5.0 (Windows NT 10.0; Win64; x64) AppleWebKit/537.36 (KHTML, like Gecko) Chrome/134.0.0.0 Safari/537.36" version="26.1.1">
  <diagram name="Page-1" id="0hR8YSfDXOYgBQ_CYvlL">
    <mxGraphModel dx="1647" dy="1946" grid="1" gridSize="10" guides="1" tooltips="1" connect="1" arrows="1" fold="1" page="1" pageScale="1" pageWidth="850" pageHeight="1100" math="0" shadow="0">
      <root>
        <mxCell id="0" />
        <mxCell id="1" parent="0" />
        <mxCell id="-4G90_z53GpQkwJH2JQ9-47" style="edgeStyle=orthogonalEdgeStyle;rounded=0;orthogonalLoop=1;jettySize=auto;html=1;shape=link;" edge="1" parent="1" source="-4G90_z53GpQkwJH2JQ9-2" target="-4G90_z53GpQkwJH2JQ9-11">
          <mxGeometry relative="1" as="geometry" />
        </mxCell>
        <mxCell id="-4G90_z53GpQkwJH2JQ9-2" value="&lt;span style=&quot;font-size: 12px;&quot;&gt;&lt;b&gt;Research Methodologies in Qualitative Research&lt;/b&gt;&lt;/span&gt;" style="rounded=0;whiteSpace=wrap;html=1;" vertex="1" parent="1">
          <mxGeometry x="30" y="-1075" width="210" height="95" as="geometry" />
        </mxCell>
        <mxCell id="-4G90_z53GpQkwJH2JQ9-54" style="edgeStyle=orthogonalEdgeStyle;rounded=0;orthogonalLoop=1;jettySize=auto;html=1;shape=link;" edge="1" parent="1" source="-4G90_z53GpQkwJH2JQ9-3" target="-4G90_z53GpQkwJH2JQ9-16">
          <mxGeometry relative="1" as="geometry" />
        </mxCell>
        <mxCell id="-4G90_z53GpQkwJH2JQ9-3" value="&lt;b&gt;Data Collection Methods in Qualitative Research&lt;/b&gt;" style="rounded=0;whiteSpace=wrap;html=1;" vertex="1" parent="1">
          <mxGeometry x="310" y="-1075" width="210" height="95" as="geometry" />
        </mxCell>
        <mxCell id="-4G90_z53GpQkwJH2JQ9-23" style="edgeStyle=orthogonalEdgeStyle;rounded=0;orthogonalLoop=1;jettySize=auto;html=1;entryX=0;entryY=0.5;entryDx=0;entryDy=0;" edge="1" parent="1" source="-4G90_z53GpQkwJH2JQ9-6" target="-4G90_z53GpQkwJH2JQ9-17">
          <mxGeometry relative="1" as="geometry" />
        </mxCell>
        <mxCell id="-4G90_z53GpQkwJH2JQ9-51" style="edgeStyle=orthogonalEdgeStyle;rounded=0;orthogonalLoop=1;jettySize=auto;html=1;shape=link;" edge="1" parent="1" source="-4G90_z53GpQkwJH2JQ9-6" target="-4G90_z53GpQkwJH2JQ9-12">
          <mxGeometry relative="1" as="geometry" />
        </mxCell>
        <mxCell id="-4G90_z53GpQkwJH2JQ9-6" value="&lt;b&gt;Grounded Theory&lt;/b&gt;&lt;div&gt;&lt;span style=&quot;&quot; data-end=&quot;680&quot; data-start=&quot;651&quot;&gt;[8] Creswell &amp;amp; Poth, 2018&lt;/span&gt; and &lt;span style=&quot;&quot; data-end=&quot;706&quot; data-start=&quot;685&quot;&gt;[9] Charmaz, 2014&lt;/span&gt;&lt;/div&gt;" style="rounded=0;whiteSpace=wrap;html=1;" vertex="1" parent="1">
          <mxGeometry x="62.5" y="-830" width="145" height="70" as="geometry" />
        </mxCell>
        <mxCell id="-4G90_z53GpQkwJH2JQ9-57" style="edgeStyle=orthogonalEdgeStyle;rounded=0;orthogonalLoop=1;jettySize=auto;html=1;shape=link;" edge="1" parent="1" source="-4G90_z53GpQkwJH2JQ9-10" target="-4G90_z53GpQkwJH2JQ9-19">
          <mxGeometry relative="1" as="geometry" />
        </mxCell>
        <mxCell id="-4G90_z53GpQkwJH2JQ9-10" value="&lt;b&gt;Critical Evaluation of Qualitative Research&lt;/b&gt;" style="rounded=0;whiteSpace=wrap;html=1;" vertex="1" parent="1">
          <mxGeometry x="600" y="-1075" width="210" height="95" as="geometry" />
        </mxCell>
        <mxCell id="-4G90_z53GpQkwJH2JQ9-21" style="edgeStyle=orthogonalEdgeStyle;rounded=0;orthogonalLoop=1;jettySize=auto;html=1;entryX=0;entryY=0.5;entryDx=0;entryDy=0;" edge="1" parent="1" source="-4G90_z53GpQkwJH2JQ9-11" target="-4G90_z53GpQkwJH2JQ9-16">
          <mxGeometry relative="1" as="geometry" />
        </mxCell>
        <mxCell id="-4G90_z53GpQkwJH2JQ9-48" style="edgeStyle=orthogonalEdgeStyle;rounded=0;orthogonalLoop=1;jettySize=auto;html=1;shape=link;" edge="1" parent="1" source="-4G90_z53GpQkwJH2JQ9-11" target="-4G90_z53GpQkwJH2JQ9-6">
          <mxGeometry relative="1" as="geometry" />
        </mxCell>
        <mxCell id="-4G90_z53GpQkwJH2JQ9-11" value="&lt;b&gt;Phenomenology&lt;/b&gt;&lt;div&gt;[7] Snyder, 2019&lt;/div&gt;" style="rounded=0;whiteSpace=wrap;html=1;" vertex="1" parent="1">
          <mxGeometry x="62.5" y="-940" width="145" height="70" as="geometry" />
        </mxCell>
        <mxCell id="-4G90_z53GpQkwJH2JQ9-25" style="edgeStyle=orthogonalEdgeStyle;rounded=0;orthogonalLoop=1;jettySize=auto;html=1;entryX=1;entryY=0.5;entryDx=0;entryDy=0;" edge="1" parent="1" source="-4G90_z53GpQkwJH2JQ9-12" target="-4G90_z53GpQkwJH2JQ9-16">
          <mxGeometry relative="1" as="geometry">
            <Array as="points">
              <mxPoint x="240" y="-685" />
              <mxPoint x="240" y="-620" />
              <mxPoint x="530" y="-620" />
              <mxPoint x="530" y="-905" />
            </Array>
          </mxGeometry>
        </mxCell>
        <mxCell id="-4G90_z53GpQkwJH2JQ9-27" style="edgeStyle=orthogonalEdgeStyle;rounded=0;orthogonalLoop=1;jettySize=auto;html=1;entryX=1;entryY=0.5;entryDx=0;entryDy=0;" edge="1" parent="1" source="-4G90_z53GpQkwJH2JQ9-12" target="-4G90_z53GpQkwJH2JQ9-15">
          <mxGeometry relative="1" as="geometry">
            <Array as="points">
              <mxPoint x="240" y="-685" />
              <mxPoint x="240" y="-620" />
              <mxPoint x="510" y="-620" />
              <mxPoint x="510" y="-795" />
            </Array>
          </mxGeometry>
        </mxCell>
        <mxCell id="-4G90_z53GpQkwJH2JQ9-52" style="edgeStyle=orthogonalEdgeStyle;rounded=0;orthogonalLoop=1;jettySize=auto;html=1;entryX=0.5;entryY=0;entryDx=0;entryDy=0;shape=link;" edge="1" parent="1" source="-4G90_z53GpQkwJH2JQ9-12" target="-4G90_z53GpQkwJH2JQ9-13">
          <mxGeometry relative="1" as="geometry" />
        </mxCell>
        <mxCell id="-4G90_z53GpQkwJH2JQ9-12" value="&lt;b&gt;Case Study Research&lt;/b&gt;&lt;div&gt;[10] Yin, 2017&lt;/div&gt;" style="rounded=0;whiteSpace=wrap;html=1;" vertex="1" parent="1">
          <mxGeometry x="62.5" y="-720" width="145" height="70" as="geometry" />
        </mxCell>
        <mxCell id="-4G90_z53GpQkwJH2JQ9-28" style="edgeStyle=orthogonalEdgeStyle;rounded=0;orthogonalLoop=1;jettySize=auto;html=1;" edge="1" parent="1" source="-4G90_z53GpQkwJH2JQ9-13" target="-4G90_z53GpQkwJH2JQ9-15">
          <mxGeometry relative="1" as="geometry">
            <Array as="points">
              <mxPoint x="510" y="-575" />
              <mxPoint x="510" y="-795" />
            </Array>
          </mxGeometry>
        </mxCell>
        <mxCell id="-4G90_z53GpQkwJH2JQ9-53" style="edgeStyle=orthogonalEdgeStyle;rounded=0;orthogonalLoop=1;jettySize=auto;html=1;shape=link;" edge="1" parent="1" source="-4G90_z53GpQkwJH2JQ9-13" target="-4G90_z53GpQkwJH2JQ9-14">
          <mxGeometry relative="1" as="geometry" />
        </mxCell>
        <mxCell id="-4G90_z53GpQkwJH2JQ9-13" value="&lt;p class=&quot;&quot; data-end=&quot;898&quot; data-start=&quot;871&quot;&gt;&lt;strong data-end=&quot;896&quot; data-start=&quot;871&quot;&gt;Ethnographic Research&lt;br&gt;&lt;/strong&gt;&lt;span style=&quot;background-color: transparent; color: light-dark(rgb(0, 0, 0), rgb(255, 255, 255));&quot;&gt;[11] Tracy, 2020&lt;/span&gt;&lt;/p&gt;" style="rounded=0;whiteSpace=wrap;html=1;" vertex="1" parent="1">
          <mxGeometry x="62.5" y="-610" width="145" height="70" as="geometry" />
        </mxCell>
        <mxCell id="-4G90_z53GpQkwJH2JQ9-30" style="edgeStyle=orthogonalEdgeStyle;rounded=0;orthogonalLoop=1;jettySize=auto;html=1;entryX=1;entryY=0.5;entryDx=0;entryDy=0;" edge="1" parent="1" source="-4G90_z53GpQkwJH2JQ9-14" target="-4G90_z53GpQkwJH2JQ9-16">
          <mxGeometry relative="1" as="geometry">
            <Array as="points">
              <mxPoint x="530" y="-465" />
              <mxPoint x="530" y="-905" />
            </Array>
          </mxGeometry>
        </mxCell>
        <mxCell id="-4G90_z53GpQkwJH2JQ9-14" value="&lt;b&gt;Narrative Research&lt;/b&gt;&lt;br&gt;&lt;div style=&quot;&quot;&gt;&lt;span style=&quot;font-size: 12px;&quot;&gt;[11] Tracy, 2020&lt;/span&gt;&lt;/div&gt;" style="rounded=0;whiteSpace=wrap;html=1;" vertex="1" parent="1">
          <mxGeometry x="62.5" y="-500" width="145" height="70" as="geometry" />
        </mxCell>
        <mxCell id="-4G90_z53GpQkwJH2JQ9-56" style="edgeStyle=orthogonalEdgeStyle;rounded=0;orthogonalLoop=1;jettySize=auto;html=1;" edge="1" parent="1" source="-4G90_z53GpQkwJH2JQ9-15" target="-4G90_z53GpQkwJH2JQ9-17">
          <mxGeometry relative="1" as="geometry">
            <mxPoint x="415" y="-740" as="targetPoint" />
          </mxGeometry>
        </mxCell>
        <mxCell id="-4G90_z53GpQkwJH2JQ9-15" value="&lt;b&gt;Observations&lt;/b&gt;&lt;br&gt;&lt;span style=&quot;font-size: 12px;&quot;&gt;[11] Tracy, 2020&lt;/span&gt;" style="rounded=0;whiteSpace=wrap;html=1;" vertex="1" parent="1">
          <mxGeometry x="342.5" y="-830" width="145" height="70" as="geometry" />
        </mxCell>
        <mxCell id="-4G90_z53GpQkwJH2JQ9-36" style="edgeStyle=orthogonalEdgeStyle;rounded=0;orthogonalLoop=1;jettySize=auto;html=1;" edge="1" parent="1" source="-4G90_z53GpQkwJH2JQ9-16" target="-4G90_z53GpQkwJH2JQ9-19">
          <mxGeometry relative="1" as="geometry">
            <Array as="points">
              <mxPoint x="430" y="-960" />
              <mxPoint x="660" y="-960" />
            </Array>
          </mxGeometry>
        </mxCell>
        <mxCell id="-4G90_z53GpQkwJH2JQ9-55" style="edgeStyle=orthogonalEdgeStyle;rounded=0;orthogonalLoop=1;jettySize=auto;html=1;shape=link;" edge="1" parent="1" source="-4G90_z53GpQkwJH2JQ9-16" target="-4G90_z53GpQkwJH2JQ9-15">
          <mxGeometry relative="1" as="geometry" />
        </mxCell>
        <mxCell id="-4G90_z53GpQkwJH2JQ9-63" style="edgeStyle=orthogonalEdgeStyle;rounded=0;orthogonalLoop=1;jettySize=auto;html=1;entryX=0;entryY=0.5;entryDx=0;entryDy=0;" edge="1" parent="1" source="-4G90_z53GpQkwJH2JQ9-16" target="-4G90_z53GpQkwJH2JQ9-18">
          <mxGeometry relative="1" as="geometry">
            <Array as="points">
              <mxPoint x="430" y="-960" />
              <mxPoint x="570" y="-960" />
              <mxPoint x="570" y="-785" />
            </Array>
          </mxGeometry>
        </mxCell>
        <mxCell id="-4G90_z53GpQkwJH2JQ9-16" value="&lt;b&gt;Interviews&lt;/b&gt;&lt;br&gt;&lt;span style=&quot;font-size: 12px;&quot;&gt;[12] Bryman, 2015 and [13] King, Horrocks &amp;amp; Brooks, 2018&lt;/span&gt;" style="rounded=0;whiteSpace=wrap;html=1;" vertex="1" parent="1">
          <mxGeometry x="342.5" y="-940" width="145" height="70" as="geometry" />
        </mxCell>
        <mxCell id="-4G90_z53GpQkwJH2JQ9-17" value="&lt;b&gt;Document Analysis&lt;/b&gt;&lt;br&gt;&lt;div style=&quot;&quot;&gt;&lt;span style=&quot;font-size: 12px;&quot;&gt;[8] Creswell &amp;amp; Poth, 2018&lt;/span&gt;&lt;/div&gt;" style="rounded=0;whiteSpace=wrap;html=1;" vertex="1" parent="1">
          <mxGeometry x="342.5" y="-720" width="145" height="70" as="geometry" />
        </mxCell>
        <mxCell id="-4G90_z53GpQkwJH2JQ9-44" style="edgeStyle=orthogonalEdgeStyle;rounded=0;orthogonalLoop=1;jettySize=auto;html=1;entryX=0.5;entryY=0;entryDx=0;entryDy=0;shape=link;" edge="1" parent="1" source="-4G90_z53GpQkwJH2JQ9-18" target="-4G90_z53GpQkwJH2JQ9-20">
          <mxGeometry relative="1" as="geometry">
            <Array as="points">
              <mxPoint x="705" y="-720" />
              <mxPoint x="705" y="-720" />
            </Array>
          </mxGeometry>
        </mxCell>
        <mxCell id="-4G90_z53GpQkwJH2JQ9-18" value="&lt;b style=&quot;font-size: 12px;&quot;&gt;Weaknesses&lt;br&gt;&lt;/b&gt;&lt;span style=&quot;font-size: 12px;&quot;&gt;[14] Silverman, 2020 and [15] Gubrium &amp;amp; Holstein, 2012&lt;/span&gt;" style="rounded=0;whiteSpace=wrap;html=1;" vertex="1" parent="1">
          <mxGeometry x="632.5" y="-820" width="145" height="70" as="geometry" />
        </mxCell>
        <mxCell id="-4G90_z53GpQkwJH2JQ9-58" style="edgeStyle=orthogonalEdgeStyle;rounded=0;orthogonalLoop=1;jettySize=auto;html=1;shape=link;" edge="1" parent="1" source="-4G90_z53GpQkwJH2JQ9-19" target="-4G90_z53GpQkwJH2JQ9-18">
          <mxGeometry relative="1" as="geometry" />
        </mxCell>
        <mxCell id="-4G90_z53GpQkwJH2JQ9-19" value="&lt;b&gt;Strengths&lt;/b&gt;&lt;br&gt;&lt;span style=&quot;font-size: 12px;&quot;&gt;&amp;nbsp;[7] Snyder, 2019&lt;/span&gt;" style="rounded=0;whiteSpace=wrap;html=1;" vertex="1" parent="1">
          <mxGeometry x="632.5" y="-940" width="145" height="70" as="geometry" />
        </mxCell>
        <mxCell id="-4G90_z53GpQkwJH2JQ9-40" style="edgeStyle=orthogonalEdgeStyle;rounded=0;orthogonalLoop=1;jettySize=auto;html=1;entryX=1;entryY=0.5;entryDx=0;entryDy=0;" edge="1" parent="1" source="-4G90_z53GpQkwJH2JQ9-20" target="-4G90_z53GpQkwJH2JQ9-19">
          <mxGeometry relative="1" as="geometry">
            <Array as="points">
              <mxPoint x="820" y="-685" />
              <mxPoint x="820" y="-905" />
            </Array>
          </mxGeometry>
        </mxCell>
        <mxCell id="-4G90_z53GpQkwJH2JQ9-41" style="edgeStyle=orthogonalEdgeStyle;rounded=0;orthogonalLoop=1;jettySize=auto;html=1;" edge="1" parent="1" source="-4G90_z53GpQkwJH2JQ9-20">
          <mxGeometry relative="1" as="geometry">
            <mxPoint x="778" y="-790" as="targetPoint" />
            <Array as="points">
              <mxPoint x="820" y="-685" />
              <mxPoint x="820" y="-790" />
              <mxPoint x="778" y="-790" />
            </Array>
          </mxGeometry>
        </mxCell>
        <mxCell id="-4G90_z53GpQkwJH2JQ9-46" style="edgeStyle=orthogonalEdgeStyle;rounded=0;orthogonalLoop=1;jettySize=auto;html=1;entryX=1;entryY=0.5;entryDx=0;entryDy=0;" edge="1" parent="1" source="-4G90_z53GpQkwJH2JQ9-20" target="-4G90_z53GpQkwJH2JQ9-15">
          <mxGeometry relative="1" as="geometry" />
        </mxCell>
        <mxCell id="-4G90_z53GpQkwJH2JQ9-20" value="&lt;b&gt;Triangulation for Credibility&lt;/b&gt;&lt;br&gt;&lt;div style=&quot;&quot;&gt;[14] Silverman, 2020&lt;/div&gt;" style="rounded=0;whiteSpace=wrap;html=1;" vertex="1" parent="1">
          <mxGeometry x="632.5" y="-690" width="145" height="70" as="geometry" />
        </mxCell>
        <mxCell id="-4G90_z53GpQkwJH2JQ9-22" value="&lt;font style=&quot;font-size: 10px;&quot;&gt;Relies On&lt;/font&gt;" style="text;html=1;align=center;verticalAlign=middle;resizable=0;points=[];autosize=1;strokeColor=none;fillColor=none;" vertex="1" parent="1">
          <mxGeometry x="210" y="-932" width="70" height="30" as="geometry" />
        </mxCell>
        <mxCell id="-4G90_z53GpQkwJH2JQ9-24" value="&lt;font style=&quot;font-size: 10px;&quot;&gt;Supports&lt;/font&gt;" style="text;html=1;align=center;verticalAlign=middle;resizable=0;points=[];autosize=1;strokeColor=none;fillColor=none;" vertex="1" parent="1">
          <mxGeometry x="212.5" y="-830" width="60" height="30" as="geometry" />
        </mxCell>
        <mxCell id="-4G90_z53GpQkwJH2JQ9-26" value="Uses" style="text;html=1;align=center;verticalAlign=middle;resizable=0;points=[];autosize=1;strokeColor=none;fillColor=none;" vertex="1" parent="1">
          <mxGeometry x="240" y="-650" width="50" height="30" as="geometry" />
        </mxCell>
        <mxCell id="-4G90_z53GpQkwJH2JQ9-29" value="&lt;font style=&quot;font-size: 10px;&quot;&gt;Depends on&lt;/font&gt;" style="text;html=1;align=center;verticalAlign=middle;resizable=0;points=[];autosize=1;strokeColor=none;fillColor=none;" vertex="1" parent="1">
          <mxGeometry x="212.5" y="-580" width="80" height="30" as="geometry" />
        </mxCell>
        <mxCell id="-4G90_z53GpQkwJH2JQ9-31" value="&lt;font style=&quot;font-size: 10px;&quot;&gt;Requires&lt;/font&gt;" style="text;html=1;align=center;verticalAlign=middle;resizable=0;points=[];autosize=1;strokeColor=none;fillColor=none;" vertex="1" parent="1">
          <mxGeometry x="212.5" y="-460" width="60" height="30" as="geometry" />
        </mxCell>
        <mxCell id="-4G90_z53GpQkwJH2JQ9-37" value="&lt;font style=&quot;font-size: 10px;&quot;&gt;Subject to bias&lt;/font&gt;" style="text;html=1;align=center;verticalAlign=middle;resizable=0;points=[];autosize=1;strokeColor=none;fillColor=none;" vertex="1" parent="1">
          <mxGeometry x="487.5" y="-950" width="90" height="30" as="geometry" />
        </mxCell>
        <mxCell id="-4G90_z53GpQkwJH2JQ9-38" value="&lt;font style=&quot;font-size: 10px;&quot;&gt;Provide rich insights&lt;/font&gt;" style="text;html=1;align=center;verticalAlign=middle;resizable=0;points=[];autosize=1;strokeColor=none;fillColor=none;" vertex="1" parent="1">
          <mxGeometry x="570" y="-980" width="110" height="30" as="geometry" />
        </mxCell>
        <mxCell id="-4G90_z53GpQkwJH2JQ9-42" value="&lt;font style=&quot;font-size: 10px;&quot;&gt;Enhances Validity&lt;/font&gt;" style="text;html=1;align=center;verticalAlign=middle;resizable=0;points=[];autosize=1;strokeColor=none;fillColor=none;" vertex="1" parent="1">
          <mxGeometry x="730" y="-735" width="100" height="30" as="geometry" />
        </mxCell>
        <mxCell id="-4G90_z53GpQkwJH2JQ9-43" value="&lt;font style=&quot;font-size: 10px;&quot;&gt;Reduces Bias Impact&lt;/font&gt;" style="text;html=1;align=center;verticalAlign=middle;resizable=0;points=[];autosize=1;strokeColor=none;fillColor=none;" vertex="1" parent="1">
          <mxGeometry x="710" y="-860" width="120" height="30" as="geometry" />
        </mxCell>
        <mxCell id="-4G90_z53GpQkwJH2JQ9-45" value="&lt;font style=&quot;font-size: 10px;&quot;&gt;Addresses&lt;br&gt;Reliability&lt;br&gt;Concerns&lt;/font&gt;" style="text;html=1;align=center;verticalAlign=middle;resizable=0;points=[];autosize=1;strokeColor=none;fillColor=none;" vertex="1" parent="1">
          <mxGeometry x="562.5" y="-715" width="70" height="60" as="geometry" />
        </mxCell>
      </root>
    </mxGraphModel>
  </diagram>
</mxfile>
